# xmcd
#
# Track frame offsets: 
#        150
#        14189
#        27541
#        41191
#        54612
#        68579
#        82159
#        95925
#        109612
#        122713
#        136250
#        149790
#        163440
#        177390
#        190889
#        204479
#        217742
#        231166
#        245182
#        258732
#        272360
#
# Disc length: 3810 seconds
#
# Revision: 0
# Processed by: cddbd v1.5.2PL0 Copyright (c) Steve Scherf et al.
# Submitted via: ExactAudioCopy v1.1
#
DISCID=520ee015
DTITLE=Various Artist - Eurovision Song Contest 2019 - Dare To Dream -  CD 1
DYEAR=2019
DGENRE=Pop
TTITLE0=Jonida Maliqi - Ktheju Tokës (Albania)
TTITLE1=Srbuk - Walking Out (Armenia)
TTITLE2=PAENDA - Limits (Austria)
TTITLE3=Kate Miller-Heidke - Zero Gravity (Australia)
TTITLE4=Chingiz - Truth (Azerbaijan)
TTITLE5=Eliot - Wake Up (Belgium)
TTITLE6=ZENA - Like It (Belarus)
TTITLE7=Luca Hänni - She Got Me (Switzerland)
TTITLE8=Tamta - Replay (Cyprus)
TTITLE9=Lake Malawi - Friend Of A Friend (Czech Republic)
TTITLE10=S!Sters - Sister (Germany)
TTITLE11=Leonora - Love Is Forever (Denmark)
TTITLE12=Victor Crone - Storm (Estonia)
TTITLE13=Miki Núnez - La Venda (Spain)
TTITLE14=Darude Feat. Sebastian Rejman - Look Away (Finland)
TTITLE15=Bilal Hassani - Roi (France)
TTITLE16=Michael Rice - Bigger Than Us (United Kingdom)
TTITLE17=Oto Nemsadze - Keep On Going (Georgia)
TTITLE18=Katerine Duska - Better Love (Greece)
TTITLE19=Roko - The Dream (Croatia)
TTITLE20=Joci Pápai - Az En Apam (Hungary)
EXTD=
EXTT0=
EXTT1=
EXTT2=
EXTT3=
EXTT4=
EXTT5=
EXTT6=
EXTT7=
EXTT8=
EXTT9=
EXTT10=
EXTT11=
EXTT12=
EXTT13=
EXTT14=
EXTT15=
EXTT16=
EXTT17=
EXTT18=
EXTT19=
EXTT20=
PLAYORDER=
